<svg width="61" height="48" viewBox="0 0 61 48" fill="none" xmlns="http://www.w3.org/2000/svg">
<path fill-rule="evenodd" clip-rule="evenodd" d="M59.5928 43.8612C59.5826 43.8896 59.57 43.9181 59.5548 43.9442L59.5553 43.9438C59.5401 43.9723 59.5249 43.9984 59.4945 44.0174C59.4827 44.0348 59.4709 44.0501 59.4591 44.0654C59.4532 44.0731 59.4473 44.0807 59.4414 44.0886C59.4212 44.1123 59.3984 44.1385 59.3756 44.1622C59.3652 44.172 59.3548 44.1817 59.344 44.1915C59.3386 44.1964 59.333 44.2014 59.3274 44.2063C59.3225 44.2106 59.3175 44.2149 59.3123 44.2191C59.287 44.2429 59.2592 44.2642 59.2314 44.2832C59.2086 44.2975 59.1808 44.3141 59.1555 44.3283C59.1476 44.332 59.1399 44.3358 59.1323 44.3397C59.1274 44.3422 59.1225 44.3448 59.1176 44.3473L59.1176 44.3473C59.1006 44.3562 59.0833 44.3652 59.0644 44.3734C59.043 44.3834 59.0205 44.391 58.9976 44.3988L58.9975 44.3988L58.9974 44.3989C58.9877 44.4022 58.978 44.4055 58.9682 44.409C58.9614 44.4114 58.955 44.414 58.9485 44.4166C58.9356 44.4219 58.9226 44.4272 58.9075 44.4304C58.9052 44.4309 58.9031 44.4312 58.901 44.4313C58.8938 44.4319 58.8875 44.4309 58.8796 44.4327C58.8012 44.4517 58.7202 44.4636 58.6367 44.4636C58.5228 44.4636 58.4823 44.4802 58.4823 44.4802C58.4357 44.5308 58.3512 44.7839 58.2977 44.9442L58.2925 44.9596C58.0951 45.5529 57.6826 46.787 56.015 46.787C54.5885 46.787 53.8799 45.8988 53.3615 45.2489L53.3578 45.2444C52.8719 44.6297 52.6872 44.4635 52.3228 44.4635C51.9584 44.4635 51.7762 44.6296 51.2877 45.2419L51.2841 45.2465C50.7657 45.8963 50.057 46.7846 48.6281 46.7846C47.2016 46.7846 46.493 45.8964 45.9746 45.2465L45.9709 45.2419C45.485 44.6297 45.3003 44.4635 44.9359 44.4635C44.574 44.4635 44.3892 44.6297 43.9008 45.2444C43.3846 45.8946 42.6734 46.787 41.2437 46.787C39.8147 46.787 39.1061 45.8988 38.5876 45.2489L38.584 45.2444C38.0981 44.6321 37.9133 44.466 37.5489 44.466C37.1845 44.466 37.0023 44.6321 36.5139 45.2444C35.9976 45.8946 35.289 46.787 33.8567 46.787C32.4303 46.787 31.7217 45.8988 31.2032 45.2489L31.1996 45.2444C30.7137 44.6321 30.5289 44.466 30.1645 44.466C29.8027 44.466 29.6179 44.6321 29.1295 45.2468C28.6132 45.897 27.9022 46.7894 26.4723 46.7894C25.0459 46.7894 24.3373 45.9012 23.8188 45.2514L23.8152 45.2468C23.3293 44.6345 23.1445 44.4684 22.7801 44.4684C22.4183 44.4684 22.2335 44.6346 21.7451 45.2492C21.2288 45.8995 20.5177 46.7918 19.0879 46.7918C18.6349 46.7918 18.2224 46.6186 17.9314 46.3053C17.2254 45.5507 17.3671 44.2644 17.6581 42.2281L17.6631 42.1929C17.767 41.4561 17.9255 40.3326 17.8732 39.7861C15.9829 40.1324 13.3004 43.6854 11.9086 46.2698C11.7365 46.5926 11.3848 46.792 11.0052 46.792C10.985 46.792 10.9647 46.792 10.9445 46.7896C10.5421 46.7683 10.1903 46.5238 10.0537 46.1678C9.82088 45.5645 7.83183 40.1941 9.89933 37.2228C10.6737 36.1121 11.9289 35.4737 13.5333 35.3764C14.9276 35.291 15.5653 34.9397 15.6868 34.6621C15.7678 34.477 15.6387 34.1613 15.3553 33.8599C14.6012 33.0554 12.9158 32.4099 10.9976 32.8988C8.33778 33.5732 5.35677 36.917 4.35211 40.3534C4.00033 41.5614 3.6207 43.797 5.05812 45.1806C5.44783 45.558 5.43771 46.1584 5.03787 46.5238C4.6355 46.8893 3.99782 46.8822 3.60558 46.5049C2.01887 44.979 1.5912 42.6153 2.39847 39.8528C3.44342 36.2739 6.74854 32.0092 10.4685 31.067C13.2395 30.3645 15.6815 31.3328 16.876 32.6072C17.7035 33.4877 17.9515 34.5011 17.5593 35.3887C17.2177 36.16 16.2661 37.1141 13.6647 37.2731C12.6955 37.3324 12.0198 37.6575 11.5972 38.2627C10.7444 39.4873 10.9418 41.6588 11.3289 43.3913C12.8474 41.1058 15.5121 37.7856 18.2705 37.8663C18.7159 37.8806 19.1182 38.0609 19.4017 38.3766C19.6851 38.6898 19.8243 39.0957 19.8749 39.5988C21.7374 38.443 24.4556 37.2991 29.8204 36.7912C24.0049 14.6964 34.9373 2.25821 35.4333 1.71C35.4376 1.70603 35.4418 1.7029 35.4458 1.6999C35.4515 1.69571 35.4568 1.69179 35.4612 1.68626C35.4915 1.65541 35.5219 1.6293 35.5548 1.6032C35.5751 1.58421 35.5953 1.5676 35.6181 1.55336C35.6492 1.53392 35.6802 1.51767 35.7127 1.50069L35.7345 1.48928C35.7547 1.47742 35.775 1.46555 35.7978 1.45606C35.8458 1.43707 35.8939 1.42283 35.9445 1.41096C35.9563 1.40938 35.9681 1.40569 35.9799 1.402C35.9859 1.40015 35.9918 1.39831 35.9977 1.39673C36.066 1.38249 36.1368 1.37537 36.2102 1.37537L36.3595 1.38011C36.6581 1.38011 36.939 1.50115 37.1314 1.71474C37.6273 2.26032 48.5064 14.6349 42.7949 36.6228C57.7302 37.4439 59.5573 43.0329 59.6282 43.2773C59.6307 43.2868 59.6307 43.2987 59.6332 43.3082L59.6484 43.4007C59.6535 43.434 59.6586 43.4672 59.6586 43.5004C59.6586 43.5099 59.6611 43.5194 59.6611 43.5289C59.6611 43.5479 59.6586 43.5645 59.656 43.5835L59.6558 43.5867C59.6533 43.619 59.6507 43.6534 59.6434 43.6855C59.6383 43.714 59.6307 43.7425 59.6231 43.771C59.62 43.7804 59.6172 43.7898 59.6144 43.7991C59.6079 43.8204 59.6016 43.8414 59.5928 43.8612ZM37.222 39.5466H39.8386C45.601 21.8735 40.1802 9.95952 37.222 5.22961V39.5466ZM35.1975 5.47876V39.5466H32.7301C27.0793 22.2174 32.2164 10.3793 35.1975 5.47876ZM56.3661 44.4199L56.3713 44.4046L56.3705 44.4047C56.4894 44.0486 56.6918 43.4648 57.1904 43.0543C56.0696 41.7252 52.5344 38.996 42.2727 38.5C42.05 39.2523 41.8096 40.0141 41.5464 40.7878C41.4122 41.1817 41.0226 41.4499 40.5822 41.4499H31.9835C31.5432 41.4499 31.1535 41.1818 31.0194 40.7878C30.7764 40.0663 30.5537 39.3567 30.3437 38.6566C23.8374 39.2309 21.5092 40.7617 19.7302 42.0527C19.7223 42.1083 19.7148 42.1635 19.7072 42.2193C19.6954 42.3063 19.6834 42.3944 19.6695 42.487C19.5708 43.18 19.419 44.2479 19.4493 44.8175C19.6341 44.7155 19.8213 44.5066 20.125 44.1222L20.1286 44.1177C20.6471 43.4678 21.3557 42.5796 22.7847 42.5796C24.2112 42.5796 24.9197 43.4677 25.4382 44.1176L25.4418 44.1222C25.9277 44.7345 26.1125 44.9006 26.4769 44.9006C26.8413 44.9006 27.0235 44.7345 27.5119 44.1222L27.5156 44.1177C28.034 43.4678 28.7426 42.5796 30.1716 42.5796C31.5981 42.5796 32.3067 43.4677 32.8251 44.1176L32.8288 44.1222C33.3172 44.7345 33.5019 44.9006 33.8638 44.9006C34.2282 44.9006 34.4105 44.7345 34.8989 44.1222C35.4151 43.4719 36.1237 42.5796 37.556 42.5796C38.9825 42.5796 39.6911 43.4677 40.2095 44.1176L40.2132 44.1222C40.7016 44.7369 40.8863 44.903 41.2507 44.903C41.6152 44.903 41.7974 44.7369 42.2858 44.1246L42.2894 44.1201C42.8079 43.4702 43.5165 42.582 44.9455 42.582C46.372 42.582 47.0805 43.4702 47.599 44.12L47.6026 44.1246C48.0885 44.7369 48.2733 44.903 48.6377 44.903C49.0021 44.903 49.1868 44.7368 49.6752 44.1222C50.1915 43.4719 50.9026 42.5796 52.3324 42.5796C53.7614 42.5796 54.47 43.4677 54.9884 44.1176L54.9921 44.1222C55.4805 44.7345 55.6653 44.9006 56.0271 44.9006C56.141 44.9006 56.1815 44.884 56.1815 44.884C56.2281 44.8334 56.3126 44.5803 56.3661 44.4199Z" fill="white"/>
<path d="M59.5548 43.9442L59.1226 43.6929L59.8588 44.3412L59.5548 43.9442ZM59.5928 43.8612L59.1358 43.6581L59.1281 43.6756L59.1216 43.6937L59.5928 43.8612ZM59.5553 43.9438L59.9965 44.1791L59.2513 43.5468L59.5553 43.9438ZM59.4945 44.0174L59.2295 43.5934L59.1401 43.6494L59.0808 43.7366L59.4945 44.0174ZM59.4591 44.0654L59.8548 44.371L59.8548 44.371L59.4591 44.0654ZM59.4414 44.0886L59.8218 44.4131L59.8324 44.4007L59.8421 44.3877L59.4414 44.0886ZM59.3756 44.1622L59.7176 44.5269L59.7272 44.5179L59.7363 44.5084L59.3756 44.1622ZM59.344 44.1915L59.008 43.8212L59.0079 43.8213L59.344 44.1915ZM59.3274 44.2063L59.6561 44.5831L59.6561 44.583L59.3274 44.2063ZM59.3123 44.2191L58.9922 43.8351L58.981 43.8444L58.9703 43.8544L59.3123 44.2191ZM59.2314 44.2832L59.4965 44.7072L59.5049 44.7019L59.5131 44.6963L59.2314 44.2832ZM59.1555 44.3283L59.3676 44.7811L59.3845 44.7732L59.4007 44.764L59.1555 44.3283ZM59.1323 44.3397L59.3603 44.7847L59.3603 44.7847L59.1323 44.3397ZM59.1176 44.3473L58.887 43.9037L58.8629 43.9162L58.8403 43.9313L59.1176 44.3473ZM59.1176 44.3473L59.3485 44.7908L59.3725 44.7784L59.3949 44.7634L59.1176 44.3473ZM59.0644 44.3734L58.8658 43.9145L58.8589 43.9175L58.8521 43.9207L59.0644 44.3734ZM58.9976 44.3988L59.1557 44.8732L59.1582 44.8723L58.9976 44.3988ZM58.9975 44.3988L58.8394 43.9245L58.8254 43.9292L58.8118 43.9346L58.9975 44.3988ZM58.9974 44.3989L59.1581 44.8724L59.1707 44.8681L59.1831 44.8631L58.9974 44.3989ZM58.9682 44.409L59.134 44.8807L59.1378 44.8793L58.9682 44.409ZM58.9485 44.4166L58.7598 43.9536L58.7596 43.9537L58.9485 44.4166ZM58.9075 44.4304L58.8055 43.9407L58.7936 43.9435L58.9075 44.4304ZM58.901 44.4313L58.9404 44.9298L58.9408 44.9298L58.901 44.4313ZM58.8796 44.4327L58.7655 43.9459L58.762 43.9468L58.8796 44.4327ZM58.4823 44.4802L58.2925 44.0176L58.1898 44.0598L58.1145 44.1415L58.4823 44.4802ZM58.2977 44.9442L58.7719 45.1027L58.7719 45.1026L58.2977 44.9442ZM58.2925 44.9596L57.8183 44.8011L57.8181 44.8018L58.2925 44.9596ZM53.3615 45.2489L53.7524 44.9371L53.7523 44.937L53.3615 45.2489ZM53.3578 45.2444L52.9656 45.5544L52.9671 45.5563L53.3578 45.2444ZM51.2877 45.2419L50.8969 44.9301L50.8968 44.9302L51.2877 45.2419ZM51.2841 45.2465L51.675 45.5583L51.675 45.5582L51.2841 45.2465ZM45.9746 45.2465L45.5837 45.5583L45.5837 45.5583L45.9746 45.2465ZM45.9709 45.2419L45.5793 45.5527L45.58 45.5537L45.9709 45.2419ZM43.9008 45.2444L43.5094 44.9333L43.5092 44.9335L43.9008 45.2444ZM38.5876 45.2489L38.1967 45.5607L38.1968 45.5607L38.5876 45.2489ZM38.584 45.2444L38.1923 45.5552L38.1931 45.5561L38.584 45.2444ZM36.5139 45.2444L36.123 44.9326L36.1223 44.9335L36.5139 45.2444ZM31.2032 45.2489L30.8123 45.5607L30.8124 45.5608L31.2032 45.2489ZM31.1996 45.2444L30.8079 45.5552L30.8087 45.5561L31.1996 45.2444ZM29.1295 45.2468L28.738 44.9357L28.7379 44.9359L29.1295 45.2468ZM23.8188 45.2514L23.4279 45.5631L23.428 45.5632L23.8188 45.2514ZM23.8152 45.2468L23.4235 45.5576L23.4243 45.5586L23.8152 45.2468ZM21.7451 45.2492L21.3536 44.9382L21.3535 44.9383L21.7451 45.2492ZM17.9314 46.3053L18.2977 45.965L18.2965 45.9637L17.9314 46.3053ZM17.6581 42.2281L18.1531 42.2989L18.1532 42.2979L17.6581 42.2281ZM17.6631 42.1929L17.168 42.123L17.168 42.123L17.6631 42.1929ZM17.8732 39.7861L18.3709 39.7384L18.319 39.1961L17.7831 39.2942L17.8732 39.7861ZM11.9086 46.2698L11.4684 46.0328L11.4674 46.0346L11.9086 46.2698ZM10.9445 46.7896L11.0027 46.293L10.9868 46.2911L10.9709 46.2903L10.9445 46.7896ZM10.0537 46.1678L10.5205 45.9886L10.5202 45.9878L10.0537 46.1678ZM9.89933 37.2228L9.48917 36.9369L9.48891 36.9373L9.89933 37.2228ZM13.5333 35.3764L13.5636 35.8755L13.5639 35.8755L13.5333 35.3764ZM15.6868 34.6621L16.1449 34.8625L16.1449 34.8625L15.6868 34.6621ZM15.3553 33.8599L14.9905 34.2019L14.9911 34.2025L15.3553 33.8599ZM10.9976 32.8988L11.1205 33.3834L11.1211 33.3833L10.9976 32.8988ZM4.35211 40.3534L3.8722 40.2131L3.87205 40.2136L4.35211 40.3534ZM5.05812 45.1806L5.40593 44.8214L5.40486 44.8204L5.05812 45.1806ZM5.03787 46.5238L5.37405 46.894L5.37521 46.8929L5.03787 46.5238ZM3.60558 46.5049L3.95222 46.1445L3.95215 46.1445L3.60558 46.5049ZM2.39847 39.8528L2.87839 39.993L2.87843 39.9929L2.39847 39.8528ZM10.4685 31.067L10.5913 31.5517L10.5914 31.5517L10.4685 31.067ZM16.876 32.6072L16.5112 32.9492L16.5117 32.9497L16.876 32.6072ZM17.5593 35.3887L18.0164 35.5911L18.0166 35.5908L17.5593 35.3887ZM13.6647 37.2731L13.6342 36.774L13.6341 36.774L13.6647 37.2731ZM11.5972 38.2627L11.1873 37.9764L11.1869 37.977L11.5972 38.2627ZM11.3289 43.3913L10.841 43.5003L11.0967 44.6444L11.7454 43.668L11.3289 43.3913ZM18.2705 37.8663L18.2865 37.3666L18.2851 37.3665L18.2705 37.8663ZM19.4017 38.3766L19.0296 38.7106L19.0309 38.712L19.4017 38.3766ZM19.8749 39.5988L19.3774 39.6488L19.4576 40.4462L20.1385 40.0236L19.8749 39.5988ZM29.8204 36.7912L29.8676 37.289L30.4539 37.2335L30.304 36.664L29.8204 36.7912ZM35.4333 1.71L35.0914 1.34523L35.0764 1.3593L35.0626 1.37454L35.4333 1.71ZM35.4458 1.6999L35.1479 1.29834L35.1478 1.29843L35.4458 1.6999ZM35.4612 1.68626L35.1048 1.33554L35.0868 1.35384L35.0708 1.37389L35.4612 1.68626ZM35.5548 1.6032L35.8656 1.99487L35.8818 1.98203L35.8968 1.96791L35.5548 1.6032ZM35.6181 1.55336L35.353 1.12939L35.353 1.12941L35.6181 1.55336ZM35.7127 1.50069L35.9444 1.9438L35.9449 1.9435L35.7127 1.50069ZM35.7345 1.48928L35.9667 1.93208L35.9772 1.9266L35.9873 1.92064L35.7345 1.48928ZM35.7978 1.45606L35.6141 0.990919L35.6054 0.994535L35.7978 1.45606ZM35.9445 1.41096L35.8781 0.915394L35.854 0.91862L35.8304 0.924164L35.9445 1.41096ZM35.9799 1.402L35.8308 0.924765L35.8307 0.924785L35.9799 1.402ZM35.9977 1.39673L35.8956 0.907244L35.8819 0.910115L35.8683 0.913755L35.9977 1.39673ZM36.2102 1.37537L36.2261 0.875619L36.2182 0.875366H36.2102V1.37537ZM36.3595 1.38011L36.3437 1.87986L36.3516 1.88011H36.3595V1.38011ZM37.1314 1.71474L36.7598 2.04932L36.7614 2.05107L37.1314 1.71474ZM42.7949 36.6228L42.3109 36.4971L42.1573 37.0885L42.7674 37.1221L42.7949 36.6228ZM59.6282 43.2773L60.1114 43.1484L60.1084 43.1381L59.6282 43.2773ZM59.6332 43.3082L60.1266 43.2272L60.1227 43.2031L60.1164 43.1795L59.6332 43.3082ZM59.6484 43.4007L60.1428 43.3255L60.1418 43.3198L59.6484 43.4007ZM59.656 43.5835L59.1604 43.5174L59.1586 43.5311L59.1575 43.5449L59.656 43.5835ZM59.6558 43.5867L59.1573 43.5482L59.1572 43.5489L59.6558 43.5867ZM59.6434 43.6855L59.1559 43.5742L59.1532 43.586L59.1511 43.598L59.6434 43.6855ZM59.6231 43.771L60.0982 43.9268L60.1026 43.9134L60.1063 43.8997L59.6231 43.771ZM59.6144 43.7991L60.0929 43.9442L60.0929 43.9441L59.6144 43.7991ZM39.8386 39.5466V40.0466H40.2015L40.314 39.7015L39.8386 39.5466ZM37.222 39.5466H36.722V40.0466H37.222V39.5466ZM37.222 5.22961L37.6459 4.96448L36.722 3.48725V5.22961H37.222ZM35.1975 39.5466V40.0466H35.6975V39.5466H35.1975ZM35.1975 5.47876H35.6975V3.69474L34.7703 5.2189L35.1975 5.47876ZM32.7301 39.5466L32.2548 39.7016L32.3673 40.0466H32.7301V39.5466ZM56.3713 44.4046L56.8455 44.5631L57.0964 43.8123L56.3107 43.9083L56.3713 44.4046ZM56.3661 44.4199L55.8919 44.2614L55.8919 44.2616L56.3661 44.4199ZM56.3705 44.4047L55.8962 44.2462L55.6455 44.9969L56.4311 44.901L56.3705 44.4047ZM57.1904 43.0543L57.5082 43.4402L57.8987 43.1186L57.5726 42.7319L57.1904 43.0543ZM42.2727 38.5L42.2968 38.0006L41.9047 37.9816L41.7933 38.3581L42.2727 38.5ZM41.5464 40.7878L42.0197 40.949L42.0198 40.9488L41.5464 40.7878ZM31.0194 40.7878L30.5455 40.9474L30.546 40.9489L31.0194 40.7878ZM30.3437 38.6566L30.8226 38.5129L30.7055 38.1227L30.2997 38.1586L30.3437 38.6566ZM19.7302 42.0527L19.4365 41.6481L19.265 41.7725L19.2352 41.9823L19.7302 42.0527ZM19.7072 42.2193L19.2118 42.1518L19.2118 42.1518L19.7072 42.2193ZM19.6695 42.487L19.175 42.4129L19.1745 42.4165L19.6695 42.487ZM19.4493 44.8175L18.95 44.8441L18.9925 45.641L19.691 45.2552L19.4493 44.8175ZM20.125 44.1222L19.7342 43.8103L19.7326 43.8123L20.125 44.1222ZM20.1286 44.1177L20.5194 44.4295L20.5195 44.4295L20.1286 44.1177ZM25.4382 44.1176L25.0473 44.4294L25.0473 44.4294L25.4382 44.1176ZM25.4418 44.1222L25.8335 43.8114L25.8327 43.8104L25.4418 44.1222ZM27.5119 44.1222L27.1211 43.8103L27.1211 43.8104L27.5119 44.1222ZM27.5156 44.1177L27.9064 44.4295L27.9064 44.4295L27.5156 44.1177ZM32.8251 44.1176L32.4343 44.4294L32.4343 44.4294L32.8251 44.1176ZM32.8288 44.1222L33.2196 43.8104L33.2196 43.8104L32.8288 44.1222ZM34.8989 44.1222L35.2897 44.434L35.2905 44.4331L34.8989 44.1222ZM40.2095 44.1176L39.8187 44.4294L39.8187 44.4294L40.2095 44.1176ZM40.2132 44.1222L40.6046 43.8111L40.604 43.8104L40.2132 44.1222ZM42.2858 44.1246L41.895 43.8127L41.8949 43.8128L42.2858 44.1246ZM42.2894 44.1201L42.6802 44.432L42.6803 44.4319L42.2894 44.1201ZM47.599 44.12L47.9899 43.8082L47.9898 43.8082L47.599 44.12ZM47.6026 44.1246L47.9943 43.8138L47.9935 43.8128L47.6026 44.1246ZM49.6752 44.1222L50.0667 44.4332L50.0668 44.4331L49.6752 44.1222ZM54.9884 44.1176L55.3793 43.8059L55.3793 43.8058L54.9884 44.1176ZM54.9921 44.1222L54.6012 44.4339L54.6012 44.434L54.9921 44.1222ZM56.1815 44.884L56.3713 45.3465L56.4741 45.3044L56.5493 45.2227L56.1815 44.884ZM59.987 44.1956C60.0204 44.1382 60.0453 44.0808 60.0639 44.0286L59.1216 43.6937C59.1209 43.6957 59.1204 43.6968 59.1203 43.697C59.1202 43.6972 59.1209 43.6958 59.1226 43.6929L59.987 44.1956ZM59.2513 43.5468L59.2508 43.5472L59.8588 44.3412L59.8592 44.3409L59.2513 43.5468ZM59.7596 44.4414C59.9117 44.3463 59.9786 44.2126 59.9965 44.1791L59.1141 43.7086C59.1016 43.732 59.1382 43.6505 59.2295 43.5934L59.7596 44.4414ZM59.8548 44.371C59.8657 44.3569 59.8866 44.3301 59.9083 44.2982L59.0808 43.7366C59.0802 43.7376 59.0788 43.7395 59.0761 43.7432C59.0731 43.7473 59.0696 43.7517 59.0634 43.7598L59.8548 44.371ZM59.8421 44.3877C59.8451 44.3836 59.8486 44.3792 59.8548 44.371L59.0634 43.7598C59.0578 43.767 59.0495 43.7778 59.0407 43.7895L59.8421 44.3877ZM59.7363 44.5084C59.7694 44.4739 59.7998 44.4389 59.8218 44.4131L59.061 43.7641C59.0425 43.7858 59.0273 43.803 59.0149 43.816L59.7363 44.5084ZM59.68 44.5618C59.6943 44.5488 59.7076 44.5363 59.7176 44.5269L59.0336 43.7975C59.0228 43.8076 59.0153 43.8146 59.008 43.8212L59.68 44.5618ZM59.6561 44.583C59.6647 44.5756 59.6727 44.5684 59.6801 44.5616L59.0079 43.8213C59.0044 43.8245 59.0014 43.8272 58.9987 43.8296L59.6561 44.583ZM59.6325 44.6032C59.6408 44.5963 59.6487 44.5895 59.6561 44.5831L58.9987 43.8295C58.9963 43.8316 58.9942 43.8334 58.9922 43.8351L59.6325 44.6032ZM59.5131 44.6963C59.5562 44.6669 59.6056 44.6296 59.6544 44.5839L58.9703 43.8544C58.9685 43.8561 58.9622 43.8616 58.9497 43.8701L59.5131 44.6963ZM59.4007 44.764C59.4331 44.7458 59.4676 44.7252 59.4965 44.7072L58.9663 43.8593C58.9496 43.8697 58.9284 43.8824 58.9102 43.8926L59.4007 44.764ZM59.3603 44.7847C59.3652 44.7822 59.3671 44.7813 59.3676 44.7811L58.9433 43.8756C58.9281 43.8827 58.9147 43.8894 58.9042 43.8948L59.3603 44.7847ZM59.3483 44.791C59.3535 44.7882 59.357 44.7864 59.3603 44.7847L58.9043 43.8948C58.8978 43.8981 58.8915 43.9013 58.887 43.9037L59.3483 44.791ZM59.3949 44.7634L59.395 44.7633L58.8403 43.9313L58.8402 43.9313L59.3949 44.7634ZM59.2629 44.8323C59.3008 44.8159 59.3333 44.7987 59.3485 44.7908L58.8867 43.9039C58.8775 43.9086 58.8731 43.9109 58.8692 43.9129C58.8658 43.9146 58.865 43.9149 58.8658 43.9145L59.2629 44.8323ZM59.1582 44.8723C59.1764 44.8662 59.2258 44.85 59.2766 44.8261L58.8521 43.9207C58.8581 43.9179 58.8609 43.917 58.858 43.918C58.8566 43.9185 58.8544 43.9193 58.8508 43.9206C58.847 43.9219 58.8429 43.9233 58.8369 43.9253L59.1582 44.8723ZM59.1556 44.8732L59.1557 44.8732L58.8395 43.9245L58.8394 43.9245L59.1556 44.8732ZM59.1831 44.8631L59.1832 44.8631L58.8118 43.9346L58.8117 43.9346L59.1831 44.8631ZM59.1378 44.8793C59.1424 44.8777 59.1476 44.8759 59.1581 44.8724L58.8368 43.9254C58.8279 43.9284 58.8136 43.9332 58.7986 43.9387L59.1378 44.8793ZM59.1372 44.8797C59.1409 44.8782 59.1412 44.878 59.1411 44.8781C59.1407 44.8782 59.1381 44.8793 59.134 44.8807L58.8023 43.9373C58.7822 43.9444 58.7646 43.9517 58.7598 43.9536L59.1372 44.8797ZM59.0094 44.9199C59.0754 44.9061 59.1282 44.8833 59.1374 44.8796L58.7596 43.9537C58.7515 43.957 58.7562 43.955 58.7629 43.9526C58.7714 43.9496 58.7862 43.9449 58.8055 43.9409L59.0094 44.9199ZM58.9408 44.9298C58.9633 44.928 58.9907 44.9244 59.0213 44.9172L58.7936 43.9435C58.8197 43.9374 58.8428 43.9344 58.8613 43.9329L58.9408 44.9298ZM58.9938 44.9195C58.947 44.9305 58.9095 44.9314 58.8971 44.9315C58.8945 44.9315 58.8925 44.9315 58.8932 44.9315C58.8935 44.9315 58.8933 44.9315 58.8938 44.9315C58.8941 44.9315 58.8945 44.9315 58.895 44.9315C58.896 44.9315 58.8976 44.9315 58.8994 44.9315C58.9063 44.9315 58.9215 44.9313 58.9404 44.9298L58.8616 43.9329C58.8769 43.9317 58.8886 43.9316 58.8921 43.9316C58.8935 43.9315 58.895 43.9315 58.8931 43.9315C58.8921 43.9315 58.8884 43.9315 58.884 43.9316C58.8647 43.9319 58.8201 43.9331 58.7655 43.9459L58.9938 44.9195ZM58.6367 44.9636C58.7677 44.9636 58.8888 44.9449 58.9972 44.9187L58.762 43.9468C58.7136 43.9585 58.6727 43.9636 58.6367 43.9636V44.9636ZM58.4823 44.4802C58.6721 44.9428 58.6719 44.9429 58.6716 44.943C58.6716 44.943 58.6714 44.9431 58.6712 44.9431C58.6709 44.9433 58.6706 44.9434 58.6703 44.9435C58.6697 44.9437 58.6691 44.944 58.6686 44.9442C58.6674 44.9447 58.6662 44.9451 58.6651 44.9456C58.6628 44.9465 58.6606 44.9473 58.6584 44.9482C58.654 44.9498 58.6499 44.9513 58.6459 44.9526C58.638 44.9553 58.631 44.9575 58.6249 44.9592C58.6128 44.9625 58.6045 44.9641 58.6008 44.9648C58.5936 44.966 58.6038 44.9636 58.6367 44.9636V43.9636C58.5557 43.9636 58.4887 43.9695 58.4328 43.979C58.4047 43.9838 58.3792 43.9895 58.3559 43.996C58.3443 43.9993 58.3332 44.0027 58.3226 44.0063C58.3173 44.0081 58.3122 44.01 58.3072 44.0119C58.3047 44.0128 58.3022 44.0138 58.2998 44.0147C58.2985 44.0152 58.2973 44.0157 58.2961 44.0162C58.2955 44.0164 58.2949 44.0166 58.2943 44.0169C58.294 44.017 58.2937 44.0171 58.2934 44.0172C58.2933 44.0173 58.293 44.0174 58.293 44.0174C58.2928 44.0175 58.2925 44.0176 58.4823 44.4802ZM58.7719 45.1026C58.7993 45.0207 58.8309 44.9263 58.8607 44.8468C58.8758 44.8067 58.8876 44.7779 58.8957 44.7601C58.8998 44.7512 58.9005 44.7506 58.8977 44.7554C58.8962 44.7581 58.8923 44.7648 58.886 44.774C58.8803 44.7824 58.8684 44.7991 58.8501 44.8189L58.1145 44.1415C58.0425 44.2197 58.0001 44.3141 57.987 44.3428C57.9645 44.3918 57.9431 44.4458 57.9245 44.4953C57.887 44.5951 57.8496 44.7074 57.8234 44.7858L58.7719 45.1026ZM58.7667 45.1181L58.7719 45.1027L57.8234 44.7857L57.8183 44.8011L58.7667 45.1181ZM56.015 47.287C56.9925 47.287 57.6494 46.9166 58.0807 46.4258C58.4915 45.9583 58.6696 45.4101 58.7669 45.1174L57.8181 44.8018C57.7181 45.1024 57.5912 45.4679 57.3295 45.7658C57.0883 46.0403 56.7051 46.287 56.015 46.287V47.287ZM52.9706 45.5608C53.4881 46.2094 54.3304 47.287 56.015 47.287V46.287C54.8466 46.287 54.2718 45.5882 53.7524 44.9371L52.9706 45.5608ZM52.9671 45.5563L52.9708 45.5609L53.7523 44.937L53.7486 44.9324L52.9671 45.5563ZM52.3228 44.9635C52.4017 44.9635 52.4293 44.9727 52.4881 45.0184C52.5849 45.0935 52.7168 45.2397 52.9656 45.5544L53.7501 44.9343C53.513 44.6343 53.3095 44.3901 53.1014 44.2285C52.8553 44.0374 52.6083 43.9635 52.3228 43.9635V44.9635ZM51.6786 45.5537C51.9292 45.2395 52.0611 45.0935 52.1583 45.0181C52.2171 44.9725 52.2442 44.9635 52.3228 44.9635V43.9635C52.037 43.9635 51.7908 44.0376 51.5453 44.2281C51.3381 44.3888 51.1347 44.632 50.8969 44.9301L51.6786 45.5537ZM51.675 45.5582L51.6787 45.5537L50.8968 44.9302L50.8932 44.9347L51.675 45.5582ZM48.6281 47.2846C50.315 47.2846 51.1573 46.2072 51.675 45.5583L50.8933 44.9346C50.374 45.5855 49.7991 46.2846 48.6281 46.2846V47.2846ZM45.5837 45.5583C46.1012 46.207 46.9435 47.2846 48.6281 47.2846V46.2846C47.4597 46.2846 46.8848 45.5858 46.3654 44.9347L45.5837 45.5583ZM45.58 45.5537L45.5837 45.5583L46.3654 44.9347L46.3618 44.9301L45.58 45.5537ZM44.9359 44.9635C45.0148 44.9635 45.0427 44.9727 45.1017 45.0185C45.1986 45.0935 45.3304 45.2392 45.5793 45.5527L46.3626 44.9311C46.1255 44.6324 45.922 44.3889 45.7139 44.2278C45.468 44.0374 45.2213 43.9635 44.9359 43.9635V44.9635ZM44.2923 45.5554C44.5424 45.2407 44.6751 45.094 44.7724 45.0184C44.832 44.9722 44.8592 44.9635 44.9359 44.9635V43.9635C44.6507 43.9635 44.4046 44.038 44.1592 44.2285C43.9516 44.3897 43.7477 44.6334 43.5094 44.9333L44.2923 45.5554ZM41.2437 47.287C42.932 47.287 43.7767 46.2049 44.2924 45.5552L43.5092 44.9335C42.9925 45.5844 42.4149 46.287 41.2437 46.287V47.287ZM38.1968 45.5607C38.7145 46.2097 39.5567 47.287 41.2437 47.287V46.287C40.0726 46.287 39.4977 45.5879 38.9785 44.9371L38.1968 45.5607ZM38.1931 45.5561L38.1967 45.5607L38.9785 44.9372L38.9749 44.9326L38.1931 45.5561ZM37.5489 44.966C37.6279 44.966 37.6557 44.9752 37.7148 45.0209C37.8116 45.0959 37.9435 45.2416 38.1923 45.5552L38.9756 44.9335C38.7386 44.6348 38.5351 44.3913 38.327 44.2302C38.0811 44.0398 37.8344 43.966 37.5489 43.966V44.966ZM36.9048 45.5561C37.1554 45.2419 37.2873 45.096 37.3844 45.0206C37.4432 44.975 37.4703 44.966 37.5489 44.966V43.966C37.2631 43.966 37.0169 44.04 36.7714 44.2305C36.5642 44.3913 36.3608 44.6345 36.123 44.9326L36.9048 45.5561ZM33.8567 47.287C35.5477 47.287 36.39 46.2046 36.9055 45.5552L36.1223 44.9335C35.6053 45.5846 35.0304 46.287 33.8567 46.287V47.287ZM30.8124 45.5608C31.3299 46.2094 32.1721 47.287 33.8567 47.287V46.287C32.6884 46.287 32.1135 45.5882 31.5941 44.9371L30.8124 45.5608ZM30.8087 45.5561L30.8123 45.5607L31.5941 44.9372L31.5905 44.9326L30.8087 45.5561ZM30.1645 44.966C30.2435 44.966 30.2713 44.9752 30.3304 45.0209C30.4272 45.0959 30.5591 45.2416 30.8079 45.5552L31.5912 44.9335C31.3542 44.6348 31.1507 44.3913 30.9426 44.2302C30.6967 44.0398 30.45 43.966 30.1645 43.966V44.966ZM29.521 45.5578C29.7711 45.2431 29.9037 45.0964 30.0011 45.0208C30.0606 44.9746 30.0878 44.966 30.1645 44.966V43.966C29.8793 43.966 29.6332 44.0404 29.3878 44.2309C29.1802 44.3921 28.9763 44.6358 28.738 44.9357L29.521 45.5578ZM26.4723 47.2894C28.1607 47.2894 29.0053 46.2073 29.5211 45.5577L28.7379 44.9359C28.2211 45.5868 27.6436 46.2894 26.4723 46.2894V47.2894ZM23.428 45.5632C23.9455 46.2118 24.7877 47.2894 26.4723 47.2894V46.2894C25.304 46.2894 24.7291 45.5906 24.2097 44.9396L23.428 45.5632ZM23.4243 45.5586L23.4279 45.5631L24.2097 44.9396L24.2061 44.935L23.4243 45.5586ZM22.7801 44.9684C22.8591 44.9684 22.8869 44.9776 22.946 45.0233C23.0428 45.0983 23.1747 45.2441 23.4235 45.5576L24.2068 44.936C23.9698 44.6372 23.7663 44.3938 23.5582 44.2326C23.3123 44.0422 23.0656 43.9684 22.7801 43.9684V44.9684ZM22.1366 45.5603C22.3866 45.2455 22.5193 45.0988 22.6167 45.0233C22.6762 44.977 22.7034 44.9684 22.7801 44.9684V43.9684C22.4949 43.9684 22.2488 44.0428 22.0034 44.2334C21.7958 44.3945 21.5919 44.6382 21.3536 44.9382L22.1366 45.5603ZM19.0879 47.2918C20.7762 47.2918 21.6209 46.2097 22.1367 45.5601L21.3535 44.9383C20.8367 45.5892 20.2592 46.2918 19.0879 46.2918V47.2918ZM17.5651 46.6456C17.9571 47.0676 18.5055 47.2918 19.0879 47.2918V46.2918C18.7643 46.2918 18.4878 46.1696 18.2977 45.965L17.5651 46.6456ZM17.1631 42.1574C17.019 43.1661 16.9034 44.0397 16.921 44.7596C16.9389 45.487 17.0935 46.1415 17.5663 46.6469L18.2965 45.9637C18.0633 45.7145 17.9358 45.3486 17.9207 44.7351C17.9055 44.1141 18.0062 43.3264 18.1531 42.2989L17.1631 42.1574ZM17.168 42.123L17.163 42.1583L18.1532 42.2979L18.1582 42.2627L17.168 42.123ZM17.3755 39.8337C17.3963 40.0514 17.3757 40.4234 17.3294 40.8662C17.2845 41.2971 17.2201 41.7533 17.168 42.123L18.1582 42.2627C18.21 41.8957 18.2769 41.4218 18.324 40.9701C18.37 40.5303 18.4024 40.0672 18.3709 39.7384L17.3755 39.8337ZM12.3488 46.5069C13.0295 45.243 14.0281 43.7392 15.0828 42.515C15.6101 41.9029 16.1426 41.3711 16.6478 40.9755C17.1608 40.5737 17.6069 40.3432 17.9633 40.2779L17.7831 39.2942C17.1944 39.4021 16.5963 39.7456 16.0312 40.1882C15.4583 40.6369 14.8787 41.2198 14.3252 41.8623C13.2181 43.1473 12.1795 44.7123 11.4684 46.0328L12.3488 46.5069ZM11.0052 47.292C11.5546 47.292 12.0841 47.0035 12.3498 46.5051L11.4674 46.0346C11.389 46.1817 11.215 46.292 11.0052 46.292V47.292ZM10.8863 47.2862C10.9403 47.2925 10.9897 47.292 11.0052 47.292V46.292C10.9998 46.292 10.9966 46.292 10.9937 46.2919C10.991 46.2919 10.9898 46.2919 10.9895 46.2919C10.9888 46.2919 10.994 46.292 11.0027 46.293L10.8863 47.2862ZM9.58691 46.347C9.79985 46.9017 10.3345 47.258 10.918 47.2889L10.9709 46.2903C10.7497 46.2786 10.5808 46.1459 10.5205 45.9886L9.58691 46.347ZM9.48891 36.9373C8.34009 38.5883 8.34749 40.8413 8.61941 42.6574C8.89518 44.4992 9.46521 46.0317 9.58722 46.3478L10.5202 45.9878C10.4094 45.7007 9.86846 44.2463 9.60838 42.5093C9.34445 40.7465 9.39107 38.8287 10.3097 37.5084L9.48891 36.9373ZM13.503 34.8774C11.7777 34.982 10.3676 35.6769 9.48917 36.9369L10.3095 37.5088C10.9798 36.5473 12.08 35.9655 13.5636 35.8755L13.503 34.8774ZM15.2287 34.4617C15.2519 34.4086 15.2273 34.5027 14.909 34.6242C14.6214 34.734 14.1667 34.8367 13.5027 34.8774L13.5639 35.8755C14.2942 35.8308 14.8555 35.7151 15.2657 35.5585C15.6453 35.4136 16.0002 35.1932 16.1449 34.8625L15.2287 34.4617ZM14.9911 34.2025C15.1022 34.3206 15.1665 34.4248 15.1954 34.4951C15.2096 34.5296 15.211 34.5454 15.2108 34.5435C15.2107 34.5413 15.2082 34.5086 15.2287 34.4617L16.1449 34.8625C16.2644 34.5893 16.1999 34.3081 16.12 34.1141C16.0338 33.905 15.8919 33.7007 15.7196 33.5174L14.9911 34.2025ZM11.1211 33.3833C12.8812 32.9347 14.3736 33.5437 14.9905 34.2019L15.7201 33.518C14.8288 32.5671 12.9503 31.8851 10.8741 32.4143L11.1211 33.3833ZM4.83202 40.4937C5.31094 38.8556 6.267 37.2247 7.42739 35.9231C8.59414 34.6143 9.92318 33.687 11.1205 33.3834L10.8747 32.4141C9.41219 32.7849 7.92082 33.8668 6.68094 35.2576C5.43471 36.6556 4.39793 38.4149 3.8722 40.2131L4.83202 40.4937ZM5.40486 44.8204C4.80767 44.2456 4.57072 43.4807 4.53363 42.6781C4.49638 41.872 4.66408 41.0704 4.83217 40.4932L3.87205 40.2136C3.68836 40.8444 3.49035 41.7646 3.5347 42.7243C3.57921 43.6874 3.87115 44.7321 4.71137 45.5408L5.40486 44.8204ZM5.37521 46.8929C5.98682 46.3338 6.0035 45.4 5.40593 44.8214L4.71031 45.5398C4.89215 45.7159 4.88859 45.9829 4.70053 46.1548L5.37521 46.8929ZM3.25893 46.8652C3.84189 47.426 4.7781 47.4353 5.37405 46.894L4.70169 46.1537C4.4929 46.3434 4.15375 46.3384 3.95222 46.1445L3.25893 46.8652ZM1.91854 39.7125C1.07791 42.5892 1.49572 45.1696 3.259 46.8653L3.95215 46.1445C2.54203 44.7884 2.10449 42.6413 2.87839 39.993L1.91854 39.7125ZM10.3458 30.5823C8.35332 31.0869 6.51487 32.4659 5.05344 34.1426C3.58891 35.8228 2.46329 37.8468 1.91851 39.7126L2.87843 39.9929C3.3786 38.2799 4.42802 36.382 5.80728 34.7996C7.18965 33.2137 8.86375 31.9892 10.5913 31.5517L10.3458 30.5823ZM17.2408 32.2653C15.9174 30.8533 13.2866 29.8368 10.3457 30.5823L10.5914 31.5517C13.1924 30.8923 15.4457 31.8123 16.5112 32.9492L17.2408 32.2653ZM18.0166 35.5908C18.5119 34.4701 18.1642 33.2478 17.2403 32.2648L16.5117 32.9497C17.2429 33.7277 17.3911 34.5322 17.1019 35.1866L18.0166 35.5908ZM13.6952 37.7721C16.4188 37.6057 17.5763 36.5851 18.0164 35.5911L17.1021 35.1862C16.8591 35.735 16.1134 36.6225 13.6342 36.774L13.6952 37.7721ZM12.0071 38.549C12.317 38.1053 12.8277 37.8253 13.6953 37.7721L13.6341 36.774C12.5632 36.8396 11.7226 37.2098 11.1873 37.9764L12.0071 38.549ZM11.8169 43.2822C11.6281 42.4375 11.4897 41.5022 11.498 40.6414C11.5065 39.7694 11.6652 39.0399 12.0075 38.5484L11.1869 37.977C10.6763 38.7101 10.5073 39.6786 10.4981 40.6317C10.4887 41.5959 10.6426 42.6126 10.841 43.5003L11.8169 43.2822ZM18.2851 37.3665C16.7061 37.3204 15.2255 38.2417 13.9961 39.3737C12.7526 40.5186 11.6811 41.9577 10.9125 43.1146L11.7454 43.668C12.4952 42.5394 13.5153 41.1757 14.6734 40.1093C15.8456 39.03 17.0766 38.3316 18.2559 38.3661L18.2851 37.3665ZM19.7737 38.0425C19.3932 37.6188 18.859 37.3849 18.2865 37.3666L18.2545 38.3661C18.5727 38.3762 18.8433 38.5031 19.0296 38.7106L19.7737 38.0425ZM20.3724 39.5487C20.3155 38.9835 20.1524 38.4611 19.7724 38.0411L19.0309 38.712C19.2178 38.9186 19.333 39.2078 19.3774 39.6488L20.3724 39.5487ZM29.7733 36.2935C24.3477 36.8071 21.5518 37.9698 19.6113 39.1739L20.1385 40.0236C21.9231 38.9163 24.5635 37.7911 29.8676 37.289L29.7733 36.2935ZM35.0626 1.37454C34.5063 1.98936 23.4615 14.5962 29.3369 36.9185L30.304 36.664C24.5483 14.7966 35.3684 2.52707 35.8041 2.04545L35.0626 1.37454ZM35.1478 1.29843C35.1456 1.30003 35.1194 1.31898 35.0914 1.34523L35.7753 2.07476C35.7648 2.08463 35.7558 2.09202 35.75 2.09658C35.7451 2.10051 35.741 2.10347 35.7439 2.10136L35.1478 1.29843ZM35.0708 1.37389C35.0936 1.34541 35.1154 1.32516 35.13 1.31277C35.1422 1.30231 35.1531 1.29447 35.1479 1.29834L35.7437 2.10146C35.7442 2.10114 35.7605 2.08925 35.778 2.0744C35.7977 2.05762 35.8244 2.03265 35.8516 1.99864L35.0708 1.37389ZM35.244 1.21153C35.2009 1.24576 35.1539 1.28567 35.1048 1.33554L35.8175 2.03699C35.8292 2.02515 35.8429 2.01285 35.8656 1.99487L35.244 1.21153ZM35.353 1.12941C35.2943 1.1661 35.2482 1.20529 35.2128 1.23849L35.8968 1.96791C35.9019 1.96314 35.8963 1.9691 35.8832 1.97731L35.353 1.12941ZM35.4811 1.05759C35.451 1.07329 35.403 1.09813 35.353 1.12939L35.8831 1.97733C35.8953 1.96972 35.9094 1.96205 35.9444 1.9438L35.4811 1.05759ZM35.5023 1.04648L35.4805 1.05789L35.9449 1.9435L35.9667 1.93208L35.5023 1.04648ZM35.6054 0.994535C35.5465 1.01906 35.4981 1.04829 35.4816 1.05793L35.9873 1.92064C35.9927 1.91749 35.9959 1.91564 35.9987 1.914C36.0014 1.91248 36.0025 1.91186 36.0027 1.91174C36.0031 1.91152 35.9984 1.91414 35.9901 1.91758L35.6054 0.994535ZM35.8304 0.924164C35.7613 0.940357 35.6893 0.961315 35.6141 0.991001L35.9814 1.92111C36.0024 1.91283 36.0265 1.9053 36.0587 1.89777L35.8304 0.924164ZM35.8307 0.924785C35.8231 0.927166 35.8271 0.925851 35.8328 0.924314C35.8395 0.92252 35.8558 0.918384 35.8781 0.915394L36.0109 1.90653C36.0723 1.8983 36.1254 1.8804 36.1292 1.87921L35.8307 0.924785ZM35.8683 0.913755C35.8507 0.918454 35.835 0.923459 35.8308 0.924765L36.1291 1.87923C36.1307 1.87874 36.1316 1.87847 36.1323 1.87823C36.133 1.87801 36.1332 1.87796 36.1331 1.87799C36.1329 1.87804 36.1306 1.87873 36.127 1.8797L35.8683 0.913755ZM36.2102 0.875366C36.1043 0.875366 35.9992 0.885659 35.8956 0.907244L36.0997 1.88621C36.1328 1.87931 36.1694 1.87537 36.2102 1.87537V0.875366ZM36.3754 0.880365L36.2261 0.875619L36.1943 1.87511L36.3437 1.87986L36.3754 0.880365ZM37.5029 1.38016C37.2108 1.05571 36.7922 0.880112 36.3595 0.880112V1.88011C36.5241 1.88011 36.6673 1.94658 36.7598 2.04932L37.5029 1.38016ZM43.2788 36.7485C49.0493 14.5339 38.0584 1.99119 37.5013 1.3784L36.7614 2.05107C37.1963 2.52945 47.9636 14.7359 42.3109 36.4971L43.2788 36.7485ZM60.1084 43.1381C60.0414 42.9071 59.4971 41.3473 57.06 39.7483C54.6314 38.1548 50.3468 36.5372 42.8223 36.1236L42.7674 37.1221C50.1783 37.5295 54.2749 39.1169 56.5114 40.5844C57.6287 41.3174 58.2858 42.023 58.6637 42.5436C58.8531 42.8045 58.9735 43.0204 59.0469 43.1724C59.0836 43.2485 59.1087 43.3086 59.1247 43.3503C59.1327 43.3712 59.1384 43.3875 59.1423 43.3988C59.1442 43.4045 59.1456 43.4088 59.1465 43.4119C59.147 43.4134 59.1474 43.4146 59.1476 43.4154C59.1478 43.4162 59.148 43.4166 59.148 43.4165L60.1084 43.1381ZM60.1164 43.1795C60.1221 43.201 60.1249 43.2179 60.126 43.2254C60.1267 43.2296 60.1271 43.2327 60.1272 43.2339C60.1274 43.2349 60.1274 43.2356 60.1272 43.2339C60.1271 43.2329 60.1267 43.2296 60.1263 43.2259C60.1258 43.222 60.125 43.2162 60.124 43.2095C60.122 43.1967 60.1183 43.1748 60.1113 43.1484L59.1451 43.4063C59.1393 43.3847 59.1365 43.3677 59.1354 43.3602C59.1348 43.356 59.1344 43.3529 59.1342 43.3517C59.1341 43.3506 59.134 43.3499 59.1342 43.3516C59.1343 43.3526 59.1347 43.3559 59.1352 43.3596C59.1357 43.3635 59.1364 43.3692 59.1374 43.376C59.1394 43.3887 59.1431 43.4106 59.1501 43.4369L60.1164 43.1795ZM60.1418 43.3198L60.1266 43.2272L59.1398 43.3891L59.155 43.4817L60.1418 43.3198ZM60.1586 43.5004C60.1586 43.4229 60.1468 43.352 60.1427 43.3255L59.1541 43.476C59.1555 43.4847 59.1564 43.4907 59.1572 43.4963C59.1579 43.5017 59.1584 43.5051 59.1586 43.5073C59.1592 43.5121 59.1586 43.5087 59.1586 43.5004H60.1586ZM60.1611 43.5289C60.1611 43.5048 60.1595 43.4849 60.1582 43.4721C60.1576 43.4655 60.1569 43.46 60.1564 43.4562C60.156 43.4527 60.1555 43.4495 60.1554 43.4486C60.1552 43.4471 60.1553 43.4479 60.1555 43.4491C60.1557 43.4505 60.1561 43.4537 60.1565 43.4578C60.1573 43.4659 60.1586 43.481 60.1586 43.5004H59.1586C59.1586 43.5245 59.1601 43.5444 59.1614 43.5573C59.1621 43.5638 59.1627 43.5693 59.1632 43.5731C59.1637 43.5766 59.1641 43.5798 59.1642 43.5807C59.1644 43.5822 59.1643 43.5814 59.1641 43.5802C59.164 43.5788 59.1636 43.5757 59.1632 43.5715C59.1624 43.5634 59.1611 43.5483 59.1611 43.5289H60.1611ZM60.1516 43.6496C60.1525 43.6429 60.1611 43.5886 60.1611 43.5289H59.1611C59.1611 43.5158 59.162 43.5063 59.1623 43.5032C59.1624 43.502 59.1625 43.5021 59.1621 43.5046C59.162 43.5059 59.1618 43.5074 59.1615 43.5096C59.1612 43.5116 59.1608 43.5145 59.1604 43.5174L60.1516 43.6496ZM60.1543 43.6253L60.1545 43.6221L59.1575 43.5449L59.1573 43.5482L60.1543 43.6253ZM60.1308 43.7969C60.1479 43.7221 60.1524 43.6499 60.1543 43.6246L59.1572 43.5489C59.1566 43.5573 59.1561 43.5633 59.1556 43.5688C59.1552 43.5742 59.1548 43.5778 59.1546 43.5802C59.1539 43.5856 59.154 43.5824 59.1559 43.5742L60.1308 43.7969ZM60.1063 43.8997C60.1129 43.875 60.1263 43.8259 60.1357 43.773L59.1511 43.598C59.1504 43.6021 59.1486 43.61 59.14 43.6422L60.1063 43.8997ZM60.0929 43.9441C60.0959 43.934 60.0972 43.9299 60.0982 43.9268L59.148 43.6152C59.1429 43.6308 59.1385 43.6455 59.1358 43.6541L60.0929 43.9441ZM60.0497 44.0642C60.0732 44.0112 60.088 43.9601 60.0929 43.9442L59.1359 43.654C59.1342 43.6597 59.1331 43.6631 59.1321 43.6663C59.1312 43.6693 59.1307 43.6706 59.1306 43.6711C59.1302 43.6722 59.132 43.6668 59.1358 43.6581L60.0497 44.0642ZM39.8386 39.0466H37.222V40.0466H39.8386V39.0466ZM36.798 5.49475C39.6985 10.1322 45.0689 21.8925 39.3633 39.3916L40.314 39.7015C46.1332 21.8545 40.662 9.78687 37.6459 4.96448L36.798 5.49475ZM37.722 39.5466V5.22961H36.722V39.5466H37.722ZM35.6975 39.5466V5.47876H34.6975V39.5466H35.6975ZM32.7301 40.0466H35.1975V39.0466H32.7301V40.0466ZM34.7703 5.2189C31.7329 10.212 26.5482 22.2017 32.2548 39.7016L33.2055 39.3916C27.6103 22.2331 32.6999 10.5465 35.6246 5.73861L34.7703 5.2189ZM55.8971 44.2461L55.8919 44.2614L56.8404 44.5784L56.8455 44.5631L55.8971 44.2461ZM56.4311 44.901L56.4319 44.9009L56.3107 43.9083L56.3099 43.9084L56.4311 44.901ZM56.8725 42.6683C56.2521 43.1792 56.0144 43.8927 55.8962 44.2462L56.8447 44.5631C56.9645 44.2046 57.1316 43.7504 57.5082 43.4402L56.8725 42.6683ZM42.2486 38.9994C52.4377 39.4919 55.8122 42.1956 56.8081 43.3766L57.5726 42.7319C56.327 41.2549 52.6311 38.5001 42.2968 38.0006L42.2486 38.9994ZM42.0198 40.9488C42.2853 40.1683 42.5277 39.4001 42.7521 38.6419L41.7933 38.3581C41.5723 39.1046 41.3339 39.86 41.073 40.6268L42.0198 40.9488ZM40.5822 41.9499C41.2206 41.9499 41.8115 41.5602 42.0197 40.949L41.0731 40.6266C41.013 40.8032 40.8245 40.9499 40.5822 40.9499V41.9499ZM31.9835 41.9499H40.5822V40.9499H31.9835V41.9499ZM30.546 40.9489C30.7542 41.5603 31.3452 41.9499 31.9835 41.9499V40.9499C31.7412 40.9499 31.5528 40.8032 31.4927 40.6267L30.546 40.9489ZM29.8648 38.8003C30.076 39.5045 30.3004 40.2195 30.5455 40.9474L31.4932 40.6282C31.2524 39.9131 31.0314 39.209 30.8226 38.5129L29.8648 38.8003ZM20.0239 42.4574C20.8988 41.8225 21.8843 41.1462 23.4421 40.5532C25.006 39.9578 27.1672 39.439 30.3876 39.1547L30.2997 38.1586C27.0138 38.4486 24.7578 38.9823 23.0863 39.6186C21.4087 40.2573 20.3407 40.9919 19.4365 41.6481L20.0239 42.4574ZM20.2026 42.2867C20.2103 42.2308 20.2176 42.177 20.2252 42.1231L19.2352 41.9823C19.227 42.0396 19.2193 42.0963 19.2118 42.1518L20.2026 42.2867ZM20.1639 42.5612C20.1784 42.4647 20.1909 42.3733 20.2026 42.2867L19.2118 42.1518C19.1999 42.2392 19.1883 42.3241 19.175 42.4129L20.1639 42.5612ZM19.9486 44.7909C19.9215 44.2827 20.0622 43.2757 20.1645 42.5575L19.1745 42.4165C19.0794 43.0843 18.9164 44.2132 18.95 44.8441L19.9486 44.7909ZM19.7326 43.8123C19.4143 44.2153 19.2879 44.3355 19.2076 44.3798L19.691 45.2552C19.9802 45.0955 20.2284 44.798 20.5174 44.4321L19.7326 43.8123ZM19.7378 43.8058L19.7342 43.8103L20.5158 44.4341L20.5194 44.4295L19.7378 43.8058ZM22.7847 42.0796C21.0978 42.0796 20.2555 43.1569 19.7378 43.8058L20.5195 44.4295C21.0387 43.7787 21.6137 43.0796 22.7847 43.0796V42.0796ZM25.829 43.8058C25.3116 43.1571 24.4693 42.0796 22.7847 42.0796V43.0796C23.953 43.0796 24.5279 43.7783 25.0473 44.4294L25.829 43.8058ZM25.8327 43.8104L25.829 43.8058L25.0473 44.4294L25.051 44.434L25.8327 43.8104ZM26.4769 44.4006C26.3979 44.4006 26.3701 44.3914 26.3111 44.3456C26.2142 44.2706 26.0823 44.1249 25.8335 43.8114L25.0502 44.433C25.2873 44.7317 25.4907 44.9752 25.6988 45.1363C25.9447 45.3267 26.1914 45.4006 26.4769 45.4006V44.4006ZM27.1211 43.8104C26.8704 44.1246 26.7385 44.2706 26.6414 44.346C26.5826 44.3916 26.5555 44.4006 26.4769 44.4006V45.4006C26.7627 45.4006 27.0089 45.3265 27.2544 45.136C27.4616 44.9753 27.665 44.7321 27.9028 44.434L27.1211 43.8104ZM27.1247 43.8058L27.1211 43.8103L27.9028 44.4341L27.9064 44.4295L27.1247 43.8058ZM30.1716 42.0796C28.4847 42.0796 27.6424 43.1569 27.1247 43.8058L27.9064 44.4295C28.4256 43.7787 29.0006 43.0796 30.1716 43.0796V42.0796ZM33.216 43.8058C32.6985 43.1571 31.8562 42.0796 30.1716 42.0796V43.0796C31.34 43.0796 31.9148 43.7783 32.4343 44.4294L33.216 43.8058ZM33.2196 43.8104L33.216 43.8058L32.4343 44.4294L32.4379 44.434L33.2196 43.8104ZM33.8638 44.4006C33.787 44.4006 33.7596 44.3919 33.6999 44.3456C33.6025 44.2702 33.4698 44.124 33.2196 43.8104L32.4379 44.434C32.6762 44.7327 32.8801 44.9756 33.0876 45.1363C33.3329 45.3262 33.5787 45.4006 33.8638 45.4006V44.4006ZM34.508 43.8104C34.2574 44.1246 34.1255 44.2706 34.0283 44.346C33.9695 44.3916 33.9424 44.4006 33.8638 44.4006V45.4006C34.1496 45.4006 34.3958 45.3265 34.6414 45.136C34.8485 44.9753 35.052 44.7321 35.2897 44.434L34.508 43.8104ZM37.556 42.0796C35.865 42.0796 35.0228 43.162 34.5073 43.8113L35.2905 44.4331C35.8074 43.7819 36.3824 43.0796 37.556 43.0796V42.0796ZM40.6004 43.8058C40.0829 43.1571 39.2406 42.0796 37.556 42.0796V43.0796C38.7244 43.0796 39.2992 43.7783 39.8187 44.4294L40.6004 43.8058ZM40.604 43.8104L40.6004 43.8058L39.8187 44.4294L39.8223 44.434L40.604 43.8104ZM41.2507 44.403C41.172 44.403 41.1441 44.3939 41.0847 44.3478C40.9873 44.2724 40.8548 44.126 40.6046 43.8111L39.8217 44.4332C40.06 44.7331 40.264 44.9771 40.4723 45.1384C40.7184 45.3291 40.9651 45.403 41.2507 45.403V44.403ZM41.8949 43.8128C41.6443 44.127 41.5124 44.273 41.4153 44.3484C41.3565 44.394 41.3294 44.403 41.2507 44.403V45.403C41.5365 45.403 41.7828 45.3289 42.0283 45.1385C42.2355 44.9777 42.4389 44.7345 42.6767 44.4364L41.8949 43.8128ZM41.8986 43.8081L41.895 43.8127L42.6765 44.4366L42.6802 44.432L41.8986 43.8081ZM44.9455 42.082C43.2585 42.082 42.4162 43.1594 41.8985 43.8083L42.6803 44.4319C43.1995 43.7811 43.7745 43.082 44.9455 43.082V42.082ZM47.9898 43.8082C47.4724 43.1596 46.6301 42.082 44.9455 42.082V43.082C46.1138 43.082 46.6887 43.7808 47.2081 44.4319L47.9898 43.8082ZM47.9935 43.8128L47.9899 43.8082L47.2081 44.4318L47.2117 44.4364L47.9935 43.8128ZM48.6377 44.403C48.5587 44.403 48.5309 44.3938 48.4718 44.3481C48.375 44.2731 48.2431 44.1273 47.9943 43.8138L47.211 44.4354C47.448 44.7342 47.6515 44.9776 47.8596 45.1387C48.1055 45.3292 48.3522 45.403 48.6377 45.403V44.403ZM49.2838 43.8111C49.0336 44.1259 48.9011 44.2724 48.8037 44.3478C48.7443 44.3939 48.7164 44.403 48.6377 44.403V45.403C48.9233 45.403 49.1701 45.329 49.4162 45.1384C49.6244 44.977 49.8284 44.7331 50.0667 44.4332L49.2838 43.8111ZM52.3324 42.0796C50.6441 42.0796 49.7994 43.1617 49.2837 43.8113L50.0668 44.4331C50.5836 43.7822 51.1611 43.0796 52.3324 43.0796V42.0796ZM55.3793 43.8058C54.8616 43.1569 54.0194 42.0796 52.3324 42.0796V43.0796C53.5034 43.0796 54.0784 43.7786 54.5976 44.4294L55.3793 43.8058ZM55.383 43.8104L55.3793 43.8059L54.5975 44.4294L54.6012 44.4339L55.383 43.8104ZM56.0271 44.4006C55.9503 44.4006 55.9229 44.3919 55.8632 44.3456C55.7658 44.2702 55.6331 44.124 55.3829 43.8104L54.6012 44.434C54.8395 44.7327 55.0434 44.9756 55.2509 45.1363C55.4962 45.3262 55.742 45.4006 56.0271 45.4006V44.4006ZM56.1815 44.884C55.9917 44.4214 55.9919 44.4213 55.9921 44.4212C55.9922 44.4212 55.9924 44.4211 55.9926 44.421C55.9929 44.4209 55.9932 44.4208 55.9935 44.4207C55.994 44.4204 55.9946 44.4202 55.9952 44.42C55.9964 44.4195 55.9975 44.419 55.9987 44.4186C56.001 44.4177 56.0032 44.4168 56.0054 44.416C56.0097 44.4144 56.0139 44.4129 56.0179 44.4115C56.0258 44.4088 56.0328 44.4067 56.0389 44.405C56.051 44.4016 56.0593 44.4 56.063 44.3994C56.0702 44.3982 56.06 44.4006 56.0271 44.4006V45.4006C56.1081 45.4006 56.1751 45.3947 56.2311 45.3852C56.2591 45.3804 56.2847 45.3746 56.3079 45.3681C56.3196 45.3649 56.3306 45.3614 56.3412 45.3578C56.3465 45.356 56.3516 45.3542 56.3566 45.3523C56.3591 45.3514 56.3616 45.3504 56.3641 45.3494C56.3653 45.349 56.3665 45.3485 56.3677 45.348C56.3683 45.3478 56.3689 45.3475 56.3695 45.3473C56.3698 45.3471 56.3701 45.347 56.3704 45.3469C56.3706 45.3468 56.3708 45.3468 56.3709 45.3467C56.3711 45.3466 56.3713 45.3465 56.1815 44.884ZM55.8919 44.2616C55.8645 44.3435 55.8329 44.4379 55.8031 44.5174C55.788 44.5575 55.7762 44.5863 55.7681 44.604C55.764 44.613 55.7633 44.6136 55.7661 44.6087C55.7676 44.6061 55.7715 44.5994 55.7778 44.5902C55.7835 44.5817 55.7954 44.5651 55.8137 44.5453L56.5493 45.2227C56.6213 45.1445 56.6637 45.05 56.6768 45.0213C56.6993 44.9724 56.7207 44.9184 56.7393 44.8688C56.7768 44.7691 56.8142 44.6567 56.8404 44.5783L55.8919 44.2616Z" fill="#222532"/>
<path d="M7.28833 31.1358C7.16839 30.991 6.0772 29.7308 4.68029 29.7308C4.03358 29.7308 3.10932 29.999 2.38266 31.2735L1.57129 32.6974H8.59108L7.28833 31.1358Z" fill="white" stroke="#222532"/>
<path fill-rule="evenodd" clip-rule="evenodd" d="M5.46384 34.5745L6.43042 34.6766L6.30817 35.6496C5.95302 38.2791 3.20622 41.0535 3.08864 41.1721L1.81634 42.4442L1.50121 40.6643C1.12728 38.5711 1.39302 36.962 2.28904 35.8822C3.54249 34.3704 5.46384 34.5745 5.46384 34.5745ZM3.73533 37.0997C3.56835 37.299 3.44371 37.553 3.3567 37.852L3.35671 37.852C3.5566 37.5506 3.74944 37.235 3.91406 36.9169C3.85291 36.9715 3.79177 37.0309 3.73533 37.0997Z" fill="white"/>
<path d="M6.43042 34.6766L6.92652 34.7389L6.9901 34.2329L6.48292 34.1793L6.43042 34.6766ZM5.46384 34.5745L5.41103 35.0717L5.41135 35.0718L5.46384 34.5745ZM6.30817 35.6496L6.80369 35.7165L6.80427 35.7119L6.30817 35.6496ZM3.08864 41.1721L3.44216 41.5257L3.4438 41.5241L3.08864 41.1721ZM1.81634 42.4442L1.324 42.5314L1.49129 43.4763L2.16987 42.7978L1.81634 42.4442ZM1.50121 40.6643L1.99355 40.5771L1.99342 40.5763L1.50121 40.6643ZM2.28904 35.8822L2.67382 36.2015L2.67394 36.2013L2.28904 35.8822ZM3.3567 37.852L2.87661 37.7123L2.82251 37.8982L2.90774 38.0721L3.3567 37.852ZM3.73533 37.0997L4.11866 37.4207L4.12195 37.4167L3.73533 37.0997ZM3.35671 37.852L2.90775 38.0721L3.29151 38.855L3.77339 38.1284L3.35671 37.852ZM3.91406 36.9169L4.3581 37.1468L3.58111 36.5439L3.91406 36.9169ZM6.48292 34.1793L5.51634 34.0773L5.41135 35.0718L6.37792 35.1738L6.48292 34.1793ZM6.80427 35.7119L6.92652 34.7389L5.93432 34.6143L5.81207 35.5873L6.80427 35.7119ZM3.4438 41.5241C3.51087 41.4564 4.24753 40.712 5.01526 39.6444C5.77355 38.5899 6.60918 37.1565 6.80367 35.7165L5.81267 35.5827C5.65201 36.7722 4.93667 38.0408 4.20338 39.0605C3.47952 40.0671 2.78398 40.7692 2.73347 40.8202L3.4438 41.5241ZM2.16987 42.7978L3.44216 41.5257L2.73511 40.8185L1.46282 42.0906L2.16987 42.7978ZM1.00887 40.7514L1.324 42.5314L2.30869 42.357L1.99355 40.5771L1.00887 40.7514ZM1.90426 35.5629C0.874425 36.8039 0.622631 38.5893 1.009 40.7522L1.99342 40.5763C1.63193 38.5528 1.91162 37.12 2.67382 36.2015L1.90426 35.5629ZM5.46384 34.5745C5.51666 34.0773 5.51645 34.0773 5.51623 34.0773C5.51614 34.0773 5.51591 34.0773 5.51575 34.0772C5.51541 34.0772 5.51505 34.0772 5.51466 34.0771C5.51387 34.077 5.51296 34.0769 5.51194 34.0768C5.50989 34.0766 5.50736 34.0764 5.50438 34.0761C5.49841 34.0756 5.49058 34.0749 5.48099 34.0741C5.4618 34.0726 5.43549 34.0709 5.40271 34.0693C5.3372 34.0662 5.24549 34.0639 5.13282 34.0664C4.90812 34.0714 4.59631 34.0958 4.24067 34.1728C3.5301 34.3266 2.62262 34.6965 1.90414 35.563L2.67394 36.2013C3.20891 35.5561 3.88883 35.2721 4.4523 35.1501C4.73368 35.0892 4.98055 35.0701 5.15528 35.0661C5.24232 35.0642 5.3105 35.066 5.35496 35.0681C5.37717 35.0692 5.39336 35.0703 5.40293 35.0711C5.40771 35.0715 5.41083 35.0717 5.41221 35.0719C5.4129 35.0719 5.41315 35.072 5.41296 35.0719C5.41286 35.0719 5.41265 35.0719 5.41233 35.0719C5.41217 35.0719 5.41198 35.0718 5.41176 35.0718C5.41165 35.0718 5.41147 35.0718 5.41142 35.0718C5.41122 35.0718 5.41103 35.0717 5.46384 34.5745ZM3.83679 37.9917C3.9098 37.7408 4.00697 37.5541 4.11864 37.4207L3.35202 36.7786C3.12973 37.044 2.97763 37.3652 2.87661 37.7123L3.83679 37.9917ZM3.80567 37.6319L3.80566 37.6319L2.90774 38.0721L2.90775 38.0721L3.80567 37.6319ZM3.47003 36.6871C3.31612 36.9844 3.13341 37.2841 2.94002 37.5757L3.77339 38.1284C3.97979 37.8172 4.18277 37.4855 4.3581 37.1468L3.47003 36.6871ZM4.12195 37.4167C4.15577 37.3755 4.19615 37.3354 4.24702 37.29L3.58111 36.5439C3.50967 36.6077 3.42777 36.6862 3.34871 36.7826L4.12195 37.4167Z" fill="#222532"/>
<path fill-rule="evenodd" clip-rule="evenodd" d="M12.7066 29.2913C12.7066 30.2833 11.9047 31.0902 10.9217 31.0902C9.93864 31.0902 9.13907 30.2833 9.13907 29.2913C9.13907 28.2993 9.93864 27.4924 10.9217 27.4924C11.907 27.4924 12.7066 28.2993 12.7066 29.2913ZM11.0204 29.2913C11.0204 29.2367 10.9757 29.1916 10.9217 29.1916C10.8676 29.1916 10.8252 29.2367 10.8252 29.2913C10.8252 29.4005 11.0204 29.4005 11.0204 29.2913Z" fill="white"/>
<path d="M10.9217 31.5902C12.1842 31.5902 13.2066 30.556 13.2066 29.2913H12.2066C12.2066 30.0106 11.6251 30.5902 10.9217 30.5902V31.5902ZM8.63907 29.2913C8.63907 30.5552 9.65821 31.5902 10.9217 31.5902V30.5902C10.2191 30.5902 9.63907 30.0115 9.63907 29.2913H8.63907ZM10.9217 26.9924C9.65821 26.9924 8.63907 28.0275 8.63907 29.2913H9.63907C9.63907 28.5712 10.2191 27.9924 10.9217 27.9924V26.9924ZM13.2066 29.2913C13.2066 28.0271 12.187 26.9924 10.9217 26.9924V27.9924C11.627 27.9924 12.2066 28.5716 12.2066 29.2913H13.2066ZM10.9217 29.6916C10.6953 29.6916 10.5204 29.5086 10.5204 29.2913H11.5204C11.5204 28.9649 11.2562 28.6916 10.9217 28.6916V29.6916ZM11.3252 29.2913C11.3252 29.4927 11.1635 29.6916 10.9217 29.6916V28.6916C10.5716 28.6916 10.3252 28.9808 10.3252 29.2913H11.3252ZM10.5204 29.2913C10.5204 29.1492 10.5923 29.0255 10.691 28.9519C10.7754 28.8889 10.8619 28.8732 10.9228 28.8732C10.9837 28.8732 11.0702 28.8889 11.1546 28.9519C11.2534 29.0255 11.3252 29.1492 11.3252 29.2913H10.3252C10.3252 29.488 10.4215 29.6526 10.5568 29.7535C10.6779 29.8438 10.8131 29.8732 10.9228 29.8732C11.0325 29.8732 11.1678 29.8438 11.2888 29.7535C11.4242 29.6526 11.5204 29.488 11.5204 29.2913H10.5204Z" fill="#222532"/>
</svg>
